<?xml version="1.0" encoding="UTF-8"?>
<svg width="121px" height="17px" viewBox="0 0 121 17" version="1.1" xmlns="http://www.w3.org/2000/svg" xmlns:xlink="http://www.w3.org/1999/xlink">
    <!-- Generator: Sketch 52.6 (67491) - http://www.bohemiancoding.com/sketch -->
    <title>Stars</title>
    <desc>Created with Sketch.</desc>
    <g id="Page-1" stroke="none" stroke-width="1" fill="none" fill-rule="evenodd">
        <g id="Testimonials" transform="translate(-497.000000, -271.000000)" fill="#FFC107">
            <g id="Stars" transform="translate(497.000000, 271.000000)">
                <path d="M16.4077464,6.01034939 L11.2267464,5.21934939 L8.9027464,0.277349395 C8.80537088,0.105912742 8.62340754,3.65332764e-15 8.4262464,3.55271368e-15 C8.22908525,3.45556916e-15 8.04712192,0.105912742 7.9497464,0.277349395 L5.6307464,5.21934939 L0.449746399,6.01034939 C0.254052731,6.03902686 0.0909872058,6.17505683 0.0276833612,6.36243621 C-0.0356204834,6.54981559 0.0115389967,6.75686751 0.149746399,6.89834939 L3.9137464,10.7563494 L3.0237464,16.2103494 C2.99130945,16.4094961 3.07542626,16.6096822 3.24037282,16.7258897 C3.40531937,16.8420972 3.62213784,16.8539248 3.7987464,16.7563494 L8.4257464,14.1993494 L13.0527464,16.7573494 C13.229355,16.8549248 13.4461734,16.8430972 13.61112,16.7268897 C13.7760665,16.6106822 13.8601834,16.4104961 13.8277464,16.2113494 L12.9377464,10.7573494 L16.7027464,6.89934939 C16.8407877,6.7576413 16.8878386,6.55056018 16.8245839,6.36311569 C16.7613293,6.1756712 16.5984254,6.03944097 16.4027464,6.01034939 L16.4077464,6.01034939 Z" id="Path"></path>
                <path d="M42.4077464,6.01034939 L37.2267464,5.21934939 L34.9027464,0.277349395 C34.8053709,0.105912742 34.6234075,3.65332764e-15 34.4262464,3.55271368e-15 C34.2290853,3.45556916e-15 34.0471219,0.105912742 33.9497464,0.277349395 L31.6307464,5.21934939 L26.4497464,6.01034939 C26.2540527,6.03902686 26.0909872,6.17505683 26.0276834,6.36243621 C25.9643795,6.54981559 26.011539,6.75686751 26.1497464,6.89834939 L29.9137464,10.7563494 L29.0237464,16.2103494 C28.9913094,16.4094961 29.0754263,16.6096822 29.2403728,16.7258897 C29.4053194,16.8420972 29.6221378,16.8539248 29.7987464,16.7563494 L34.4257464,14.1993494 L39.0527464,16.7573494 C39.229355,16.8549248 39.4461734,16.8430972 39.61112,16.7268897 C39.7760665,16.6106822 39.8601834,16.4104961 39.8277464,16.2113494 L38.9377464,10.7573494 L42.7027464,6.89934939 C42.8407877,6.7576413 42.8878386,6.55056018 42.8245839,6.36311569 C42.7613293,6.1756712 42.5984254,6.03944097 42.4027464,6.01034939 L42.4077464,6.01034939 Z" id="Path"></path>
                <path d="M68.4077464,6.01034939 L63.2267464,5.21934939 L60.9027464,0.277349395 C60.8053709,0.105912742 60.6234075,3.65332764e-15 60.4262464,3.55271368e-15 C60.2290853,3.45556916e-15 60.0471219,0.105912742 59.9497464,0.277349395 L57.6307464,5.21934939 L52.4497464,6.01034939 C52.2540527,6.03902686 52.0909872,6.17505683 52.0276834,6.36243621 C51.9643795,6.54981559 52.011539,6.75686751 52.1497464,6.89834939 L55.9137464,10.7563494 L55.0237464,16.2103494 C54.9913094,16.4094961 55.0754263,16.6096822 55.2403728,16.7258897 C55.4053194,16.8420972 55.6221378,16.8539248 55.7987464,16.7563494 L60.4257464,14.1993494 L65.0527464,16.7573494 C65.229355,16.8549248 65.4461734,16.8430972 65.61112,16.7268897 C65.7760665,16.6106822 65.8601834,16.4104961 65.8277464,16.2113494 L64.9377464,10.7573494 L68.7027464,6.89934939 C68.8407877,6.7576413 68.8878386,6.55056018 68.8245839,6.36311569 C68.7613293,6.1756712 68.5984254,6.03944097 68.4027464,6.01034939 L68.4077464,6.01034939 Z" id="Path"></path>
                <path d="M94.4077464,6.01034939 L89.2267464,5.21934939 L86.9027464,0.277349395 C86.8053709,0.105912742 86.6234075,3.65332764e-15 86.4262464,3.55271368e-15 C86.2290853,3.45556916e-15 86.0471219,0.105912742 85.9497464,0.277349395 L83.6307464,5.21934939 L78.4497464,6.01034939 C78.2540527,6.03902686 78.0909872,6.17505683 78.0276834,6.36243621 C77.9643795,6.54981559 78.011539,6.75686751 78.1497464,6.89834939 L81.9137464,10.7563494 L81.0237464,16.2103494 C80.9913094,16.4094961 81.0754263,16.6096822 81.2403728,16.7258897 C81.4053194,16.8420972 81.6221378,16.8539248 81.7987464,16.7563494 L86.4257464,14.1993494 L91.0527464,16.7573494 C91.229355,16.8549248 91.4461734,16.8430972 91.61112,16.7268897 C91.7760665,16.6106822 91.8601834,16.4104961 91.8277464,16.2113494 L90.9377464,10.7573494 L94.7027464,6.89934939 C94.8407877,6.7576413 94.8878386,6.55056018 94.8245839,6.36311569 C94.7613293,6.1756712 94.5984254,6.03944097 94.4027464,6.01034939 L94.4077464,6.01034939 Z" id="Path"></path>
                <path d="M120.407746,6.01034939 L115.226746,5.21934939 L112.902746,0.277349395 C112.805371,0.105912742 112.623408,3.65332764e-15 112.426246,3.55271368e-15 C112.229085,3.45556916e-15 112.047122,0.105912742 111.949746,0.277349395 L109.630746,5.21934939 L104.449746,6.01034939 C104.254053,6.03902686 104.090987,6.17505683 104.027683,6.36243621 C103.96438,6.54981559 104.011539,6.75686751 104.149746,6.89834939 L107.913746,10.7563494 L107.023746,16.2103494 C106.991309,16.4094961 107.075426,16.6096822 107.240373,16.7258897 C107.405319,16.8420972 107.622138,16.8539248 107.798746,16.7563494 L112.425746,14.1993494 L117.052746,16.7573494 C117.229355,16.8549248 117.446173,16.8430972 117.61112,16.7268897 C117.776067,16.6106822 117.860183,16.4104961 117.827746,16.2113494 L116.937746,10.7573494 L120.702746,6.89934939 C120.840788,6.7576413 120.887839,6.55056018 120.824584,6.36311569 C120.761329,6.1756712 120.598425,6.03944097 120.402746,6.01034939 L120.407746,6.01034939 Z" id="Path"></path>
            </g>
        </g>
    </g>
</svg>