<?xml version="1.0" encoding="UTF-8"?>
<svg width="17px" height="17px" viewBox="0 0 17 17" version="1.1" xmlns="http://www.w3.org/2000/svg" xmlns:xlink="http://www.w3.org/1999/xlink">
    <!-- Generator: Sketch 52.6 (67491) - http://www.bohemiancoding.com/sketch -->
    <title>Path</title>
    <desc>Created with Sketch.</desc>
    <g id="Page-1" stroke="none" stroke-width="1" fill="none" fill-rule="evenodd">
        <g id="Testimonials" transform="translate(-601.000000, -271.000000)" fill="#FFC107">
            <g id="Stars" transform="translate(497.000000, 271.000000)">
                <path d="M120.407746,6.01034939 L115.226746,5.21934939 L112.902746,0.277349395 C112.805371,0.105912742 112.623408,3.65332764e-15 112.426246,3.55271368e-15 C112.229085,3.45556916e-15 112.047122,0.105912742 111.949746,0.277349395 L109.630746,5.21934939 L104.449746,6.01034939 C104.254053,6.03902686 104.090987,6.17505683 104.027683,6.36243621 C103.96438,6.54981559 104.011539,6.75686751 104.149746,6.89834939 L107.913746,10.7563494 L107.023746,16.2103494 C106.991309,16.4094961 107.075426,16.6096822 107.240373,16.7258897 C107.405319,16.8420972 107.622138,16.8539248 107.798746,16.7563494 L112.425746,14.1993494 L117.052746,16.7573494 C117.229355,16.8549248 117.446173,16.8430972 117.61112,16.7268897 C117.776067,16.6106822 117.860183,16.4104961 117.827746,16.2113494 L116.937746,10.7573494 L120.702746,6.89934939 C120.840788,6.7576413 120.887839,6.55056018 120.824584,6.36311569 C120.761329,6.1756712 120.598425,6.03944097 120.402746,6.01034939 L120.407746,6.01034939 Z" id="Path"></path>
            </g>
        </g>
    </g>
</svg>